<svg width="16" height="16" viewBox="0 0 16 16" fill="none" xmlns="http://www.w3.org/2000/svg">
<g clip-path="url(#clip0_4_37)">
<path d="M4.66751 9.28615C4.74461 8.70084 4.979 8.01332 5.61537 7.85606C6.52922 8.26217 7.12003 10.6049 7.47018 11.5297C7.74455 10.7116 7.90076 10.0339 7.45113 9.26957C7.28699 8.83139 6.84547 8.50452 6.80168 7.99791C6.73808 7.75129 6.60705 7.52137 6.68116 7.27372C6.40275 6.92309 6.6052 6.43703 6.48478 6.02985C6.37234 5.67541 6.43136 5.31227 6.34795 4.95565C6.3812 4.54017 6.51428 4.04129 6.74835 3.70435C7.00732 3.73844 7.28674 3.8565 7.38997 4.11421C7.53976 4.36514 7.84553 4.53222 7.84627 4.86262C8.4925 5.71886 8.40491 6.89699 8.65342 7.90748C9.16094 7.47334 9.32006 6.75414 9.61634 6.17821C9.80455 5.75437 10.1455 5.43715 10.4028 5.05943C10.5695 4.83943 10.7851 4.4347 11.0939 4.65888C11.1701 4.70901 11.3223 4.71325 11.3484 4.80542C11.3796 5.34849 11.2524 5.85299 11.126 6.37097C10.9934 7.20674 10.4187 7.81022 10.0976 8.54373C9.81571 8.87342 9.7334 8.82935 9.58548 9.29213C9.20904 9.84951 8.76704 10.3495 8.22342 10.7371C8.09 11.2624 7.67642 11.8414 7.9993 12.3518C8.27609 12.1348 8.32382 11.7088 8.63455 11.5167C8.86834 10.9565 9.20698 10.3829 9.5802 9.87531C10.1632 9.26524 11.3598 8.29155 11.3294 9.83041C11.3275 9.87617 11.3274 9.925 11.2988 9.96233C11.2008 10.1173 11.2763 10.3175 11.2253 10.4896C10.9968 10.8367 10.9471 11.2615 10.785 11.629C10.3399 12.1742 10.0581 12.8582 9.61001 13.3795C9.31418 13.5816 9.05376 13.8215 8.83861 14.109C8.51099 14.4993 8.07395 14.7979 7.7841 15.2153C7.61209 15.3849 7.36218 15.4656 7.25099 15.7062C7.17356 15.8989 7.01191 15.9699 6.82435 15.9999C6.35996 15.7695 6.37683 15.1213 6.2605 14.6853C6.15235 14.4809 6.16282 14.2375 6.06097 14.0463C5.99677 13.9796 5.96255 13.8987 5.93321 13.8137C5.82927 13.428 5.63571 13.0769 5.49187 12.7112C5.43598 12.2808 5.28096 11.8673 5.1458 11.467C4.82982 11.1797 4.69466 10.6331 4.78072 10.2162C4.76114 9.99131 4.61352 9.77909 4.65324 9.53475L4.66751 9.28615Z" fill="black"/>
<path d="M10.0407 0.0103903C10.2467 0.00842423 10.2546 0.229632 10.3394 0.377821C10.4291 0.601568 10.4695 0.840507 10.1575 0.834435C10.5812 0.980011 10.4925 0.998639 10.5461 1.41764C10.7267 2.28595 10.5555 3.15251 10.1557 3.93463C9.94072 4.47472 9.99069 5.13911 9.53569 5.57177C9.33232 5.7433 9.14467 6.06819 8.84835 5.8993C8.54103 5.71823 8.5794 5.15487 8.72827 4.87221C8.87343 4.67365 8.68858 4.45668 8.73176 4.24087C8.67105 3.56096 8.78972 2.89802 8.90481 2.227C8.94271 1.48113 8.89678 0.120864 9.85906 0L10.0407 0.0103903Z" fill="black"/>
<path d="M6.90732 11.3346C6.87358 11.577 7.00945 11.7942 7.02645 12.0317C6.94842 12.4614 7.0712 12.8788 7.04074 13.3053C6.9293 13.7761 6.86291 15.0624 6.41192 13.9364C6.14946 13.5084 6.13414 12.9648 5.89327 12.531C5.91193 12.3853 5.85793 12.2631 5.76303 12.1598C5.62513 11.9525 5.65834 11.6727 5.52288 11.4551C5.24342 10.9431 4.69577 8.48973 5.70223 8.71027C6.02675 9.20203 6.3825 9.77984 6.52049 10.3342C6.58539 10.3297 6.61557 10.311 6.62736 10.3781C6.66952 10.7183 6.95517 10.9859 6.90732 11.3346Z" fill="white"/>
<path d="M7.7705 14.5841C7.57501 14.2673 7.97532 14.0089 7.87658 13.6938C7.87155 13.6218 7.95417 13.638 8.00108 13.6424C8.12297 13.5492 8.06806 13.2727 8.25642 13.1936C8.43625 12.5934 8.81427 12.0758 9.10555 11.5253C9.26453 11.2916 9.44415 11.0474 9.49911 10.7746C9.81916 10.4658 10.0436 10.0758 10.4022 9.796C10.5024 9.68121 10.7537 9.6612 10.8017 9.81547C10.7678 10.2683 10.8072 10.7724 10.5146 11.1527C10.2465 11.4732 10.3536 11.9975 9.93975 12.1889C9.89444 12.5879 9.54661 12.8682 9.30431 13.1531C9.12 13.2057 9.02862 13.3518 9.00224 13.5326C8.97731 13.6577 8.78904 13.668 8.69837 13.7425C8.39513 14.0355 8.01781 14.2263 7.7705 14.5841Z" fill="#75A394"/>
<path d="M8.14034 6.97732C8.08465 6.95119 8.02896 6.92507 7.97351 6.89906C8.00322 7.06115 8.12081 7.2263 8.06108 7.40478C8.0004 7.61702 8.10502 7.82182 8.08369 8.03448C8.07346 8.50242 8.09104 9.65297 7.6001 8.59282C7.30765 8.03941 6.96925 7.4949 7.01887 6.83401C6.89953 6.17408 6.76775 5.3687 6.97048 4.74771C7.21864 4.71869 7.30573 4.965 7.45333 5.11983C7.50794 5.23 7.76219 5.40149 7.71395 5.50561C7.60561 5.75531 7.95388 6.01165 7.96263 6.28415C8.01383 6.52208 8.02646 6.77907 8.14034 6.97732Z" fill="#75A394"/>
<path d="M8.92144 9.15732C9.04351 8.46164 9.31516 7.73238 9.70637 7.15985C9.74148 7.0627 9.69843 6.93074 9.77749 6.83461C10.0423 6.41419 10.2782 5.97095 10.6059 5.59457C10.6642 5.52569 10.7383 5.50505 10.8258 5.5325C10.883 5.59159 10.7828 5.72673 10.7802 5.80916C10.7384 5.90578 10.7453 5.99882 10.7803 6.09628C10.7913 6.22151 10.689 6.336 10.6549 6.45526C10.572 6.6908 10.6379 6.95764 10.459 7.16206C10.3763 7.3375 10.1695 7.53174 10.1832 7.71842C10.2203 7.786 10.2148 7.77291 10.1604 7.80859C9.80135 8.03816 9.63985 8.49268 9.33013 8.79488C9.21084 8.91235 9.21504 9.10484 9.08827 9.21103C8.9935 9.30936 8.88198 9.33832 8.92144 9.15732Z" fill="white"/>
<path d="M9.7696 0.648682C10.1925 0.986572 10.1055 2.08949 10.1171 2.61501C10.0528 3.16279 9.70564 3.61742 9.59814 4.15335C9.54821 4.27908 9.47938 4.75887 9.36401 4.75179C9.03505 4.61619 9.21206 4.19857 9.19148 3.92802C9.12327 3.55173 9.16629 3.18691 9.2473 2.81588C9.33553 2.08811 9.30938 1.27005 9.7696 0.648682Z" fill="#75A394"/>
</g>
<defs>
<clipPath id="clip0_4_37">
<rect width="16" height="16" fill="white"/>
</clipPath>
</defs>
</svg>
