<svg width="16" height="16" viewBox="0 0 16 16" fill="none" xmlns="http://www.w3.org/2000/svg">
<path d="M5.08395 9.12542C5.15141 8.61326 5.35651 8.01166 5.91335 7.87406C6.71299 8.22941 7.22996 10.2793 7.53635 11.0885C7.77643 10.3727 7.91312 9.77974 7.51968 9.11091C7.37605 8.7275 6.98971 8.44147 6.9514 7.99817C6.89575 7.78238 6.78109 7.58119 6.84594 7.3645C6.60233 7.05768 6.77947 6.63237 6.6741 6.27608C6.57572 5.96593 6.62736 5.64818 6.55438 5.33613C6.58347 4.97258 6.69992 4.53605 6.90473 4.24121C7.13134 4.27104 7.37583 4.37435 7.46616 4.59985C7.59724 4.81942 7.86479 4.96562 7.86544 5.25473C8.4309 6.00396 8.35426 7.03485 8.57171 7.91905C9.0158 7.53917 9.15504 6.90985 9.41429 6.4059C9.57898 6.03503 9.87731 5.75745 10.1024 5.42694C10.2483 5.23443 10.4369 4.88029 10.7072 5.07645C10.7738 5.12031 10.9071 5.12403 10.9299 5.20468C10.9571 5.67987 10.8458 6.12132 10.7353 6.57457C10.6192 7.30588 10.1164 7.83395 9.83539 8.47578C9.58875 8.76427 9.51672 8.72571 9.38729 9.13065C9.0579 9.61837 8.67113 10.0559 8.19545 10.395C8.07871 10.8547 7.71681 11.3614 7.99934 11.808C8.24154 11.6181 8.2833 11.2453 8.5552 11.0772C8.75977 10.587 9.05609 10.0851 9.38266 9.64095C9.89277 9.10712 10.9398 8.25512 10.9132 9.60165C10.9116 9.6417 10.9115 9.68443 10.8864 9.71709C10.8007 9.85271 10.8668 10.0279 10.8222 10.1785C10.6223 10.4822 10.5787 10.8539 10.4369 11.1755C10.0474 11.6525 9.80088 12.2511 9.40875 12.7072C9.14989 12.884 8.92202 13.0939 8.73376 13.3456C8.44708 13.687 8.06466 13.9483 7.81104 14.3135C7.66052 14.4619 7.44185 14.5326 7.34455 14.7431C7.27681 14.9117 7.13535 14.9738 6.97123 15.0001C6.56488 14.7985 6.57965 14.2313 6.47785 13.8498C6.38322 13.671 6.39238 13.4579 6.30326 13.2907C6.24709 13.2323 6.21714 13.1615 6.19147 13.0871C6.10052 12.7496 5.93115 12.4424 5.80528 12.1224C5.75638 11.7458 5.62073 11.384 5.50246 11.0337C5.22598 10.7823 5.10771 10.3041 5.18301 9.9392C5.16587 9.74245 5.03671 9.55675 5.07146 9.34295L5.08395 9.12542Z" fill="black"/>
<path d="M9.78563 1.00885C9.96594 1.00713 9.97285 1.20069 10.047 1.33036C10.1255 1.52614 10.1609 1.73522 9.88789 1.72991C10.2586 1.85729 10.181 1.87359 10.2279 2.24022C10.3859 3.00002 10.2361 3.75827 9.88627 4.44265C9.69817 4.91524 9.7419 5.49659 9.34377 5.87518C9.16581 6.02527 9.00161 6.30956 8.74233 6.16178C8.47341 6.00333 8.50699 5.51039 8.63726 5.26305C8.76427 5.0893 8.60252 4.89945 8.64031 4.71062C8.58718 4.11568 8.69102 3.53559 8.79173 2.94843C8.8249 2.29578 8.78471 1.10551 9.62672 0.999756L9.78563 1.00885Z" fill="black"/>
<path d="M7.04387 10.9179C7.01436 11.13 7.13325 11.3201 7.14812 11.5279C7.07984 11.9039 7.18727 12.2691 7.16062 12.6423C7.06311 13.0543 7.00501 14.1798 6.61039 13.1946C6.38073 12.8201 6.36733 12.3445 6.15656 11.9648C6.17288 11.8373 6.12564 11.7304 6.04259 11.64C5.92193 11.4586 5.95099 11.2138 5.83246 11.0234C5.58793 10.5754 5.10872 8.42863 5.98939 8.62161C6.27336 9.05191 6.58465 9.55751 6.70539 10.0426C6.76218 10.0386 6.78859 10.0223 6.79891 10.081C6.8358 10.3787 7.08575 10.6128 7.04387 10.9179Z" fill="white"/>
<path d="M7.7992 13.7612C7.62815 13.484 7.97843 13.2579 7.89203 12.9821C7.88763 12.9191 7.95992 12.9333 8.00096 12.9372C8.10763 12.8556 8.05958 12.6136 8.22439 12.5445C8.38175 12.0192 8.71253 11.5663 8.9674 11.0847C9.10651 10.8801 9.26368 10.6665 9.31178 10.4278C9.59183 10.1575 9.78821 9.81631 10.102 9.57147C10.1897 9.47102 10.4096 9.45352 10.4516 9.58851C10.4219 9.98476 10.4564 10.4259 10.2004 10.7586C9.96573 11.0391 10.0595 11.4978 9.69734 11.6653C9.6577 12.0145 9.35334 12.2597 9.14132 12.509C8.98004 12.555 8.90009 12.6829 8.87701 12.8411C8.85519 12.9506 8.69045 12.9596 8.61111 13.0248C8.34577 13.2811 8.01561 13.4481 7.7992 13.7612Z" fill="#75A394"/>
<path d="M8.12277 7.10512C8.07403 7.08225 8.02531 7.0594 7.97679 7.03664C8.00278 7.17847 8.10567 7.32298 8.05341 7.47915C8.00032 7.66486 8.09186 7.84407 8.07319 8.03016C8.06424 8.43961 8.07963 9.44637 7.65004 8.51871C7.39414 8.03447 7.09804 7.558 7.14146 6.97971C7.03703 6.40226 6.92172 5.69754 7.09911 5.15416C7.31626 5.12876 7.39247 5.34429 7.52161 5.47977C7.5694 5.57617 7.79187 5.72623 7.74967 5.81733C7.65486 6.03583 7.95961 6.26013 7.96726 6.49857C8.01207 6.70677 8.02312 6.93164 8.12277 7.10512Z" fill="#75A394"/>
<path d="M8.80628 9.01265C8.9131 8.40391 9.1508 7.76579 9.49312 7.26481C9.52383 7.17981 9.48617 7.06433 9.55534 6.98022C9.78706 6.61235 9.99346 6.2245 10.2802 5.89516C10.3312 5.83489 10.3961 5.81683 10.4726 5.84085C10.5227 5.89255 10.435 6.0108 10.4327 6.08293C10.3961 6.16747 10.4022 6.24889 10.4328 6.33416C10.4424 6.44374 10.3529 6.54393 10.3231 6.64828C10.2505 6.85439 10.3082 7.08788 10.1517 7.26675C10.0794 7.42026 9.89839 7.59023 9.91031 7.75358C9.94279 7.81271 9.93801 7.80126 9.89042 7.83247C9.57623 8.03335 9.43491 8.43107 9.1639 8.6955C9.05951 8.79829 9.06319 8.96672 8.95226 9.05964C8.86934 9.14568 8.77175 9.17103 8.80628 9.01265Z" fill="white"/>
<path d="M9.5484 1.56738C9.91845 1.86304 9.84229 2.82812 9.85251 3.28797C9.79616 3.76728 9.49243 4.1651 9.39837 4.63405C9.35467 4.74406 9.29445 5.1639 9.19349 5.1577C8.90565 5.03904 9.06054 4.67362 9.04253 4.43688C8.98285 4.10762 9.02049 3.78839 9.09137 3.46373C9.16858 2.82691 9.14569 2.11109 9.5484 1.56738Z" fill="#75A394"/>
</svg>
