<svg width="16" height="16" viewBox="0 0 16 16" fill="none" xmlns="http://www.w3.org/2000/svg">
<g clip-path="url(#clip0_4_37)">
<rect width="16" height="16" rx="8" fill="white"/>
<path d="M5.26943 9.05381C5.3326 8.57422 5.52465 8.01089 6.04607 7.88203C6.79486 8.21478 7.27896 10.1343 7.56586 10.8921C7.79067 10.2218 7.91867 9.66652 7.55025 9.04022C7.41576 8.68119 7.05399 8.41336 7.01811 7.99825C6.966 7.79618 6.85863 7.60779 6.91936 7.40488C6.69124 7.11758 6.85711 6.71932 6.75845 6.38568C6.66632 6.09526 6.71468 5.79771 6.64634 5.50551C6.67358 5.16508 6.78262 4.75631 6.97441 4.48022C7.1866 4.50816 7.41555 4.6049 7.50014 4.81606C7.62287 5.02167 7.87341 5.15857 7.87402 5.42929C8.40352 6.13086 8.33175 7.0962 8.53537 7.92416C8.95122 7.56844 9.08161 6.97915 9.32437 6.50724C9.47858 6.15996 9.75794 5.90004 9.96875 5.59054C10.1054 5.41028 10.282 5.07866 10.535 5.26235C10.5974 5.30342 10.7222 5.30689 10.7436 5.38242C10.7691 5.82739 10.6649 6.24076 10.5614 6.66519C10.4527 7.34999 9.98179 7.84447 9.71868 8.44548C9.48773 8.71562 9.42028 8.67952 9.29908 9.0587C8.99064 9.51541 8.62847 9.9251 8.18304 10.2427C8.07372 10.6731 7.73485 11.1476 7.99941 11.5658C8.2262 11.3879 8.2653 11.0389 8.51992 10.8814C8.71148 10.4224 8.98895 9.95247 9.29475 9.53655C9.77242 9.03667 10.7529 8.23886 10.728 9.49976C10.7265 9.53726 10.7264 9.57727 10.7029 9.60785C10.6226 9.73484 10.6845 9.89886 10.6427 10.0399C10.4555 10.3243 10.4148 10.6723 10.2819 10.9735C9.91722 11.4202 9.68637 11.9807 9.31918 12.4078C9.07678 12.5734 8.8634 12.7699 8.68712 13.0056C8.41867 13.3253 8.06057 13.57 7.82308 13.912C7.68213 14.0509 7.47737 14.1171 7.38626 14.3142C7.32282 14.4721 7.19037 14.5303 7.03668 14.5549C6.65617 14.3661 6.67 13.835 6.57468 13.4778C6.48607 13.3103 6.49464 13.1108 6.41119 12.9542C6.35859 12.8995 6.33055 12.8332 6.30651 12.7636C6.22134 12.4475 6.06274 12.1599 5.94488 11.8602C5.89909 11.5076 5.77207 11.1688 5.66132 10.8407C5.40242 10.6053 5.29167 10.1575 5.36219 9.81584C5.34614 9.6316 5.22519 9.45771 5.25773 9.2575L5.26943 9.05381Z" fill="black"/>
<path d="M9.67204 1.45358C9.84088 1.45197 9.84735 1.63322 9.91681 1.75465C9.99033 1.93798 10.0234 2.13376 9.7678 2.12878C10.115 2.24806 10.0423 2.26333 10.0862 2.60664C10.2341 3.31812 10.0938 4.02815 9.76628 4.669C9.59014 5.11154 9.63109 5.65592 9.25828 6.01043C9.09164 6.15098 8.93788 6.41718 8.69509 6.2788C8.44327 6.13043 8.47472 5.66883 8.5967 5.43723C8.71563 5.27453 8.56417 5.09675 8.59955 4.91993C8.54981 4.36283 8.64705 3.81963 8.74135 3.26981C8.77241 2.65867 8.73477 1.5441 9.52324 1.44507L9.67204 1.45358Z" fill="black"/>
<path d="M7.10463 10.7323C7.07698 10.9309 7.18831 11.1089 7.20224 11.3035C7.1383 11.6556 7.2389 11.9976 7.21395 12.347C7.12264 12.7328 7.06824 13.7867 6.69871 12.8642C6.48366 12.5135 6.47111 12.0681 6.27374 11.7126C6.28903 11.5932 6.24479 11.4931 6.16702 11.4085C6.05403 11.2386 6.08125 11.0094 5.97025 10.8311C5.74128 10.4116 5.29255 8.4013 6.11721 8.58202C6.38312 8.98495 6.6746 9.45839 6.78767 9.91259C6.84085 9.90893 6.86557 9.89359 6.87524 9.94859C6.90978 10.2274 7.14384 10.4466 7.10463 10.7323Z" fill="white"/>
<path d="M7.81191 13.3947C7.65174 13.1351 7.97974 12.9234 7.89883 12.6652C7.89472 12.6062 7.96241 12.6194 8.00084 12.6231C8.10072 12.5467 8.05573 12.3201 8.21006 12.2553C8.35741 11.7635 8.66715 11.3394 8.90582 10.8884C9.03608 10.6968 9.18326 10.4968 9.22829 10.2733C9.49053 10.0202 9.67442 9.7007 9.96829 9.47142C10.0504 9.37737 10.2563 9.36097 10.2956 9.48738C10.2678 9.85843 10.3001 10.2715 10.0604 10.583C9.84066 10.8457 9.92846 11.2753 9.58934 11.4321C9.55221 11.7591 9.26721 11.9887 9.06868 12.2221C8.91766 12.2652 8.84279 12.3849 8.82117 12.5331C8.80074 12.6356 8.64648 12.644 8.57219 12.7051C8.32372 12.9452 8.01456 13.1015 7.81191 13.3947Z" fill="#75A394"/>
<path d="M8.11498 7.16206C8.06934 7.14065 8.02372 7.11925 7.97829 7.09794C8.00262 7.23075 8.09897 7.36607 8.05003 7.51231C8.00032 7.68621 8.08603 7.85402 8.06856 8.02827C8.06018 8.41169 8.07458 9.35441 7.67232 8.48576C7.43269 8.03231 7.15542 7.58615 7.19608 7.04464C7.09829 6.50391 6.99032 5.844 7.15643 5.33518C7.35976 5.3114 7.43112 5.51322 7.55206 5.64008C7.59681 5.73035 7.80513 5.87087 7.76561 5.95618C7.67683 6.16078 7.9622 6.37081 7.96936 6.59409C8.01132 6.78905 8.02167 6.99962 8.11498 7.16206Z" fill="#75A394"/>
<path d="M8.75498 8.94821C8.85501 8.37819 9.07759 7.78066 9.39814 7.31154C9.4269 7.23194 9.39163 7.12381 9.45641 7.04505C9.67339 6.70057 9.86666 6.33738 10.1352 6.02899C10.1829 5.97255 10.2437 5.95564 10.3153 5.97813C10.3622 6.02655 10.2802 6.13728 10.278 6.20482C10.2437 6.28399 10.2494 6.36022 10.2781 6.44007C10.2871 6.54269 10.2033 6.6365 10.1753 6.73422C10.1074 6.92721 10.1614 7.14585 10.0149 7.31335C9.94709 7.4571 9.77764 7.61626 9.7888 7.76922C9.81922 7.82459 9.81474 7.81386 9.77018 7.8431C9.47596 8.0312 9.34363 8.40362 9.08986 8.65124C8.99211 8.74749 8.99556 8.90521 8.89168 8.99222C8.81403 9.07279 8.72265 9.09652 8.75498 8.94821Z" fill="white"/>
<path d="M9.44995 1.97656C9.79647 2.25342 9.72515 3.15712 9.73472 3.58772C9.68196 4.03655 9.39754 4.40907 9.30946 4.84819C9.26854 4.95121 9.21215 5.34435 9.11762 5.33854C8.84808 5.22743 8.99311 4.88525 8.97625 4.66357C8.92037 4.35525 8.95561 4.05632 9.02199 3.7523C9.09429 3.15599 9.07286 2.48569 9.44995 1.97656Z" fill="#75A394"/>
</g>
<defs>
<clipPath id="clip0_4_37">
<rect width="16" height="16" rx="8" fill="white"/>
</clipPath>
</defs>
</svg>
