<svg width="32" height="32" viewBox="0 0 32 32" fill="none" xmlns="http://www.w3.org/2000/svg">
<path d="M10.1686 18.2508C10.3035 17.2265 10.7137 16.0234 11.8273 15.7482C13.4266 16.4589 14.4605 20.5586 15.0732 22.177C15.5534 20.7453 15.8268 19.5594 15.0399 18.2218C14.7527 17.455 13.98 16.883 13.9034 15.9964C13.7921 15.5648 13.5628 15.1625 13.6925 14.7291C13.2052 14.1155 13.5595 13.2649 13.3488 12.5523C13.152 11.932 13.2553 11.2965 13.1093 10.6724C13.1675 9.94537 13.4004 9.07232 13.81 8.48267C14.2632 8.54233 14.7522 8.74894 14.9329 9.19993C15.195 9.63906 15.7301 9.93145 15.7314 10.5096C16.8623 12.0081 16.709 14.0698 17.1439 15.8381C18.0321 15.0784 18.3105 13.8198 18.829 12.8119C19.1584 12.0702 19.755 11.5151 20.2053 10.8541C20.497 10.4691 20.8743 9.76079 21.4147 10.1531C21.548 10.2408 21.8145 10.2482 21.8602 10.4095C21.9147 11.3599 21.6921 12.2428 21.471 13.1493C21.2388 14.6119 20.2331 15.6679 19.6712 16.9516C19.1779 17.5285 19.0339 17.4514 18.775 18.2613C18.1163 19.2367 17.3427 20.1117 16.3914 20.79C16.1579 21.7092 15.4342 22.7226 15.9992 23.6158C16.4836 23.236 16.5671 22.4905 17.1109 22.1543C17.52 21.1739 18.1126 20.1702 18.7658 19.2819C19.786 18.2142 21.88 16.5103 21.8268 19.2033C21.8236 19.2834 21.8235 19.3688 21.7732 19.4341C21.6018 19.7054 21.7339 20.0557 21.6447 20.3569C21.2449 20.9643 21.1579 21.7076 20.8741 22.3509C20.0952 23.3049 19.6022 24.502 18.8179 25.4142C18.3002 25.7678 17.8445 26.1877 17.468 26.6909C16.8947 27.3738 16.1298 27.8964 15.6226 28.6268C15.3216 28.9236 14.8842 29.0649 14.6897 29.4859C14.5542 29.8231 14.2713 29.9473 13.943 29.9999C13.1304 29.5967 13.1599 28.4623 12.9563 27.6994C12.767 27.3417 12.7854 26.9156 12.6071 26.5811C12.4948 26.4644 12.4349 26.3228 12.3835 26.1741C12.2017 25.499 11.8629 24.8847 11.6112 24.2447C11.5134 23.4915 11.2421 22.7679 11.0056 22.0673C10.4526 21.5645 10.2161 20.608 10.3667 19.8784C10.3324 19.4849 10.0741 19.1135 10.1436 18.6859L10.1686 18.2508Z" fill="black"/>
<path d="M19.5716 2.01818C19.9322 2.01474 19.9461 2.40186 20.0944 2.66119C20.2514 3.05274 20.322 3.47089 19.7761 3.46026C20.5176 3.71502 20.3624 3.74762 20.4561 4.48086C20.7721 6.00042 20.4725 7.51688 19.7729 8.8856C19.3967 9.83077 19.4842 10.9934 18.6879 11.7506C18.332 12.0508 18.0036 12.6193 17.4851 12.3238C16.9473 12.0069 17.0144 11.021 17.2749 10.5264C17.529 10.1789 17.2055 9.79919 17.281 9.42153C17.1748 8.23168 17.3825 7.07154 17.5839 5.89724C17.6502 4.59199 17.5698 2.21151 19.2538 2L19.5716 2.01818Z" fill="black"/>
<path d="M14.0883 21.8355C14.0292 22.2597 14.267 22.6399 14.2968 23.0555C14.1602 23.8074 14.3751 24.5378 14.3218 25.2842C14.1268 26.1082 14.0106 28.3591 13.2213 26.3887C12.762 25.6398 12.7352 24.6885 12.3137 23.9292C12.3463 23.6742 12.2519 23.4605 12.0858 23.2796C11.8444 22.9169 11.9026 22.4273 11.6655 22.0465C11.1765 21.1505 10.2181 16.857 11.9794 17.243C12.5473 18.1035 13.1698 19.1147 13.4113 20.0848C13.5249 20.077 13.5777 20.0442 13.5984 20.1617C13.6721 20.7571 14.172 21.2253 14.0883 21.8355Z" fill="white"/>
<path d="M15.5988 27.5221C15.2567 26.9678 15.9573 26.5156 15.7845 25.9641C15.7757 25.838 15.9202 25.8664 16.0023 25.8742C16.2157 25.7111 16.1196 25.2271 16.4492 25.0887C16.7639 24.0383 17.4254 23.1326 17.9352 22.1692C18.2134 21.7602 18.5277 21.333 18.6239 20.8556C19.184 20.315 19.5767 19.6326 20.2044 19.1429C20.3797 18.942 20.8195 18.907 20.9034 19.177C20.8441 19.9695 20.913 20.8517 20.401 21.5171C19.9318 22.078 20.1193 22.9955 19.395 23.3305C19.3157 24.0288 18.707 24.5193 18.283 25.0178C17.9604 25.1099 17.8005 25.3655 17.7544 25.6819C17.7107 25.9009 17.3813 25.919 17.2226 26.0493C16.6919 26.562 16.0316 26.896 15.5988 27.5221Z" fill="#75A394"/>
<path d="M16.2461 14.2104C16.1486 14.1646 16.0512 14.1189 15.9541 14.0734C16.0061 14.3571 16.2119 14.6461 16.1074 14.9584C16.0012 15.3298 16.1843 15.6883 16.1469 16.0604C16.129 16.8793 16.1598 18.8928 15.3007 17.0375C14.7889 16.069 14.1967 15.1161 14.2835 13.9596C14.0747 12.8047 13.8441 11.3953 14.1988 10.3086C14.6331 10.2578 14.7855 10.6888 15.0438 10.9598C15.1394 11.1526 15.5843 11.4527 15.4999 11.6349C15.3103 12.0719 15.9198 12.5204 15.9351 12.9973C16.0247 13.4137 16.0468 13.8634 16.2461 14.2104Z" fill="#75A394"/>
<path d="M17.613 18.0251C17.8266 16.8077 18.302 15.5315 18.9866 14.5295C19.0481 14.3595 18.9727 14.1286 19.1111 13.9604C19.5745 13.2247 19.9873 12.449 20.5608 11.7903C20.6628 11.6698 20.7925 11.6337 20.9455 11.6817C21.0457 11.7851 20.8704 12.0216 20.8658 12.1658C20.7926 12.3349 20.8047 12.4977 20.8659 12.6683C20.8852 12.8875 20.7062 13.0878 20.6466 13.2965C20.5014 13.7087 20.6168 14.1757 20.3038 14.5334C20.1591 14.8404 19.7972 15.1804 19.821 15.5071C19.886 15.6253 19.8764 15.6024 19.7812 15.6648C19.1528 16.0666 18.8702 16.862 18.3282 17.3909C18.1194 17.5964 18.1268 17.9333 17.9049 18.1191C17.7391 18.2912 17.5439 18.3419 17.613 18.0251Z" fill="white"/>
<path d="M19.0973 3.13525C19.8373 3.72656 19.685 5.65666 19.7055 6.57633C19.5928 7.53494 18.9853 8.33055 18.7972 9.26842C18.7098 9.48845 18.5894 10.3281 18.3875 10.3157C17.8118 10.0784 18.1216 9.34756 18.0855 8.8741C17.9662 8.21559 18.0415 7.57716 18.1832 6.92784C18.3376 5.65425 18.2919 4.22264 19.0973 3.13525Z" fill="#75A394"/>
</svg>
