<svg width="32" height="32" viewBox="0 0 32 32" fill="none" xmlns="http://www.w3.org/2000/svg">
<g clip-path="url(#clip0_4_35)">
<path d="M9.33551 18.5726C9.48971 17.4019 9.95848 16.0269 11.2312 15.7124C13.0589 16.5246 14.2406 21.21 14.9408 23.0596C15.4896 21.4234 15.802 20.0681 14.9027 18.5394C14.5745 17.663 13.6914 17.0093 13.6038 15.9961C13.4766 15.5028 13.2146 15.043 13.3628 14.5477C12.806 13.8464 13.2109 12.8743 12.9701 12.0599C12.7452 11.3511 12.8632 10.6248 12.6964 9.91154C12.7629 9.08059 13.0291 8.08282 13.4972 7.40894C14.0151 7.47713 14.574 7.71325 14.7804 8.22866C15.08 8.73053 15.6915 9.06469 15.693 9.72549C16.9855 11.438 16.8103 13.7942 17.3073 15.8152C18.3224 14.9469 18.6406 13.5085 19.2332 12.3567C19.6096 11.509 20.2915 10.8745 20.806 10.1191C21.1395 9.6791 21.5706 8.86965 22.1883 9.31801C22.3406 9.41826 22.6452 9.42675 22.6973 9.61108C22.7596 10.6972 22.5052 11.7062 22.2526 12.7422C21.9872 14.4137 20.8379 15.6207 20.1957 17.0877C19.6319 17.7471 19.4673 17.659 19.1715 18.5845C18.4186 19.6993 17.5346 20.6993 16.4473 21.4744C16.1805 22.525 15.3533 23.6831 15.9991 24.7039C16.5527 24.2699 16.6481 23.4179 17.2696 23.0336C17.7372 21.9132 18.4144 20.7661 19.1609 19.7509C20.3268 18.5307 22.72 16.5833 22.6592 19.6611C22.6555 19.7526 22.6554 19.8502 22.598 19.9249C22.402 20.2349 22.553 20.6352 22.4511 20.9795C21.9942 21.6736 21.8947 22.5232 21.5704 23.2583C20.6803 24.3486 20.1168 25.7167 19.2205 26.7593C18.6288 27.1634 18.108 27.6432 17.6777 28.2183C17.0225 28.9988 16.1484 29.5961 15.5687 30.4308C15.2247 30.7699 14.7249 30.9315 14.5025 31.4127C14.3476 31.798 14.0243 31.94 13.6492 32C12.7204 31.5393 12.7542 30.2428 12.5215 29.3709C12.3052 28.9621 12.3261 28.4751 12.1224 28.0929C11.994 27.9595 11.9256 27.7976 11.8669 27.6277C11.659 26.8562 11.2719 26.1541 10.9842 25.4227C10.8725 24.5619 10.5624 23.7349 10.2921 22.9342C9.66013 22.3596 9.38981 21.2665 9.56193 20.4326C9.52276 19.9829 9.22752 19.5584 9.30696 19.0697L9.33551 18.5726Z" fill="black"/>
<path d="M20.0818 0.0207806C20.4939 0.0168485 20.5097 0.459264 20.6793 0.755643C20.8587 1.20314 20.9394 1.68101 20.3156 1.66887C21.163 1.96002 20.9856 1.99728 21.0927 2.83527C21.4538 4.57191 21.1114 6.30501 20.3118 7.86926C19.8819 8.94945 19.9819 10.2782 19.0719 11.1435C18.6651 11.4866 18.2898 12.1364 17.6972 11.7986C17.0825 11.4365 17.1593 10.3097 17.457 9.74441C17.7473 9.34729 17.3776 8.91336 17.464 8.48175C17.3426 7.12193 17.5799 5.79605 17.8101 4.45399C17.8859 2.96227 17.7941 0.241727 19.7186 0L20.0818 0.0207806Z" fill="black"/>
<path d="M13.8151 22.6691C13.7477 23.154 14.0194 23.5884 14.0534 24.0634C13.8973 24.9228 14.1429 25.7575 14.082 26.6105C13.8591 27.5522 13.7263 30.1247 12.8243 27.8728C12.2994 27.0169 12.2688 25.9297 11.787 25.0619C11.8243 24.7705 11.7164 24.5263 11.5265 24.3196C11.2507 23.905 11.3172 23.3455 11.0462 22.9103C10.4873 21.8863 9.39204 16.9795 11.4049 17.4205C12.054 18.4041 12.7655 19.5597 13.0415 20.6683C13.1713 20.6594 13.2316 20.622 13.2552 20.7562C13.3395 21.4367 13.9108 21.9718 13.8151 22.6691Z" fill="white"/>
<path d="M15.5415 29.168C15.1506 28.5344 15.9512 28.0177 15.7537 27.3873C15.7437 27.2433 15.9089 27.2757 16.0027 27.2846C16.2465 27.0982 16.1367 26.5451 16.5134 26.387C16.8731 25.1865 17.6291 24.1513 18.2116 23.0504C18.5296 22.5829 18.8888 22.0946 18.9988 21.549C19.6389 20.9313 20.0877 20.1514 20.805 19.5917C21.0054 19.3622 21.508 19.3221 21.6039 19.6307C21.5362 20.5364 21.6149 21.5446 21.0298 22.3051C20.4935 22.9462 20.7078 23.9947 19.88 24.3776C19.7894 25.1756 19.0938 25.7361 18.6092 26.3059C18.2405 26.4111 18.0578 26.7033 18.005 27.0649C17.9552 27.3152 17.5786 27.3358 17.3973 27.4848C16.7908 28.0707 16.0362 28.4524 15.5415 29.168Z" fill="#75A394"/>
<path d="M16.2812 13.9546C16.1698 13.9024 16.0584 13.8501 15.9475 13.7981C16.0069 14.1223 16.2421 14.4526 16.1226 14.8096C16.0013 15.234 16.2105 15.6436 16.1679 16.069C16.1474 17.0048 16.1826 19.3059 15.2007 17.1856C14.6158 16.0788 13.939 14.9898 14.0382 13.668C13.7995 12.3482 13.536 10.7374 13.9415 9.49542C14.4378 9.43739 14.612 9.93 14.9071 10.2397C15.0164 10.46 15.5249 10.803 15.4284 11.0112C15.2117 11.5106 15.9082 12.0233 15.9257 12.5683C16.0281 13.0442 16.0534 13.5581 16.2812 13.9546Z" fill="#75A394"/>
<path d="M17.8434 18.3144C18.0876 16.923 18.6309 15.4645 19.4133 14.3194C19.4835 14.1252 19.3974 13.8612 19.5555 13.669C20.0851 12.8281 20.5569 11.9416 21.2123 11.1889C21.3289 11.0511 21.4771 11.0099 21.652 11.0648C21.7665 11.1829 21.5662 11.4532 21.5609 11.6181C21.4773 11.8113 21.4911 11.9974 21.5611 12.1923C21.5831 12.4428 21.3785 12.6718 21.3104 12.9103C21.1445 13.3814 21.2763 13.915 20.9186 14.3239C20.7532 14.6748 20.3396 15.0632 20.3669 15.4366C20.4411 15.5718 20.4302 15.5456 20.3214 15.6169C19.6033 16.0761 19.2802 16.9851 18.6608 17.5895C18.4222 17.8245 18.4306 18.2094 18.1771 18.4218C17.9875 18.6185 17.7645 18.6764 17.8434 18.3144Z" fill="white"/>
<path d="M19.5397 1.29761C20.3855 1.97339 20.2114 4.17922 20.2348 5.23027C20.106 6.32582 19.4118 7.23509 19.1968 8.30694C19.0969 8.5584 18.9593 9.51799 18.7285 9.50383C18.0706 9.23261 18.4246 8.39738 18.3834 7.85629C18.247 7.10371 18.3331 6.37407 18.4951 5.63199C18.6716 4.17646 18.6192 2.54034 19.5397 1.29761Z" fill="#75A394"/>
</g>
<defs>
<clipPath id="clip0_4_35">
<rect width="32" height="32" fill="white"/>
</clipPath>
</defs>
</svg>
