<?xml version="1.0" encoding="UTF-8"?>
<svg id="Ebene_2" data-name="Ebene 2" xmlns="http://www.w3.org/2000/svg" viewBox="0 0 148.5031 140.5925">
  <defs>
    <style>
      .cls-1 {
        fill: #12120d;
      }

      .cls-2 {
        fill: #fff;
      }

      .cls-3 {
        fill: #75a394;
      }
    </style>
  </defs>
  <g id="Ebene_1-2" data-name="Ebene 1">
    <g>
      <g>
        <path d="M.1686,74.6276c.6196-4.7038,2.5032-10.2289,7.6173-11.4927,7.344,3.2636,12.092,22.0905,14.9059,29.5223,2.2049-6.5745,3.4603-12.0202-.1531-18.1629-1.3191-3.5213-4.8673-6.1482-5.2192-10.2195-.5111-1.9819-1.5641-3.8296-.9685-5.8198-2.2374-2.8178-.6105-6.7239-1.5782-9.9962-.9036-2.8484-.4293-5.7667-1.0996-8.6326.2672-3.3389,1.3367-7.3481,3.2177-10.0559,2.0812.274,4.3267,1.2228,5.1563,3.2938,1.2038,2.0166,3.661,3.3593,3.667,6.0145,5.1933,6.881,4.4894,16.3489,6.4865,24.4695,4.0786-3.4889,5.3574-9.2686,7.7384-13.897,1.5125-3.4061,4.2524-5.9554,6.32-8.9909,1.3398-1.768,3.0722-5.0205,5.554-3.2189.6122.4028,1.8359.4369,2.0455,1.1776.2503,4.3643-.7719,8.4186-1.7871,12.5813-1.0663,6.7165-5.6845,11.5663-8.265,17.461-2.2652,2.6495-2.9267,2.2954-4.1154,6.0144-3.0252,4.4793-6.5773,8.4975-10.946,11.6122-1.0722,4.2214-4.3959,8.875-1.8011,12.9767,2.2244-1.7439,2.6079-5.1673,5.1051-6.7116,1.8788-4.5019,4.6002-9.1113,7.5995-13.1906,4.6849-4.9028,14.3012-12.7277,14.057-.3609-.0149.3678-.0155.7602-.2461,1.0602-.7875,1.2455-.1806,2.8542-.5902,4.2375-1.836,2.7892-2.2358,6.2027-3.5387,9.1566-3.5769,4.381-5.841,9.8784-9.4424,14.0675-2.3774,1.624-4.4702,3.5519-6.1992,5.8627-2.6329,3.1362-6.1451,5.5361-8.4744,8.8902-1.3824,1.3627-3.3907,2.0118-4.2843,3.9452-.6222,1.5483-1.9213,2.1188-3.4286,2.3601-3.732-1.8512-3.5964-7.0608-4.5313-10.5641-.8691-1.6426-.785-3.5994-1.6035-5.1355-.5159-.536-.7909-1.1862-1.0267-1.8691-.8353-3.1001-2.3908-5.9211-3.5468-8.8602-.4491-3.4587-1.6949-6.7816-2.7811-9.999-2.5393-2.309-3.6255-6.7011-2.9339-10.052-.1574-1.807-1.3437-3.5125-1.0245-5.4761l.1143-1.9978Z"/>
        <path d="M43.349.0835c1.656-.0158,1.7195,1.7619,2.4007,2.9528.7211,1.7981,1.0454,3.7183-1.4615,3.6695,3.405,1.1699,2.6922,1.3196,3.1226,4.6868,1.4511,6.9781.0752,13.942-3.1375,20.2274-1.7275,4.3404-1.3259,9.6796-4.9824,13.1566-1.6344,1.3785-3.1424,3.9894-5.5237,2.6322-2.4698-1.4552-2.1614-5.9825-.965-8.2541,1.1665-1.5957-.319-3.3393.028-5.0736-.4879-5.464.4658-10.7916,1.3907-16.1842.3046-5.994-.0645-16.9256,7.6687-17.8969l1.4594.0835Z"/>
        <path class="cls-2" d="M18.1686,91.0888c-.2711,1.9481.8208,3.6939.9574,5.6025-.6271,3.4531.3596,6.8071.1148,10.2346-.8955,3.784-1.4291,14.1207-5.0534,5.072-2.1092-3.4391-2.2323-7.8077-4.168-11.2944.1499-1.1709-.284-2.1524-1.0467-2.9829-1.1082-1.6658-.8413-3.9141-1.9299-5.6629-2.2458-4.1146-6.6469-23.831,1.4413-22.0586,2.608,3.9519,5.4669,8.5954,6.5758,13.0501.5216-.0359.7641-.1863.8589.3531.3388,2.7343,2.6343,4.8845,2.2497,7.6866Z"/>
        <path class="cls-3" d="M25.1056,117.2022c-1.571-2.5457,1.646-4.6221.8525-7.1549-.0404-.5787.6235-.4486,1.0005-.4128.9796-.7488.5383-2.9715,2.052-3.6068,1.4452-4.8238,4.4831-8.9831,6.8239-13.407,1.2776-1.8785,2.7211-3.8403,3.1628-6.0326,2.572-2.4823,4.3756-5.616,7.2578-7.8647.8053-.9225,2.8249-1.0833,3.2102.1565-.2722,3.6392.0441,7.6904-2.3071,10.7462-2.1549,2.5759-1.2937,6.7892-4.6198,8.3276-.3641,3.2066-3.1594,5.4589-5.1066,7.7483-1.4812.4228-2.2155,1.5968-2.4275,3.0498-.2004,1.0056-1.7134,1.0884-2.442,1.6871-2.437,2.3545-5.4691,3.8882-7.4566,6.7633Z"/>
        <path class="cls-3" d="M28.0776,56.0726c-.4476-.21-.8951-.4199-1.3407-.6289.2387,1.3026,1.1837,2.6298.7037,4.0641-.4876,1.7056.3531,3.3515.1817,5.0605-.0822,3.7605.0591,13.0067-3.8863,4.487-2.3502-4.4474-5.0697-8.8233-4.6709-14.1344-.9591-5.3034-2.0181-11.7757-.3889-16.7662,1.9943-.2332,2.6942,1.7462,3.8803,2.9905.4389.8853,2.4821,2.2635,2.0945,3.1002-.8707,2.0067,1.9281,4.0667,1.9984,6.2566.4115,1.9121.5128,3.9775,1.428,5.5707Z"/>
        <path class="cls-2" d="M34.3548,73.5909c.981-5.5907,3.1641-11.4513,6.308-16.0524.2821-.7807-.0638-1.8412.5715-2.6137,2.1281-3.3786,4.0237-6.9407,6.6574-9.9654.4684-.5535,1.064-.7194,1.7668-.4988.4598.4749-.3449,1.5609-.3663,2.2233-.3359.7765-.2806,1.5242.0007,2.3074.0887,1.0064-.7336,1.9265-1.0074,2.8849-.6664,1.8929-.1367,4.0373-1.574,5.6801-.6646,1.4099-2.3266,2.9709-2.2171,4.4711.2983.5431.2544.4379-.1827.7246-2.8856,1.8449-4.1835,5.4976-6.6725,7.9262-.9587.944-.9249,2.4909-1.9437,3.3443-.7616.7902-1.6579,1.0229-1.3408-.4317Z"/>
        <path class="cls-3" d="M41.1708,5.2137c3.3986,2.7154,2.6991,11.5788,2.793,15.8021-.5175,4.4021-3.307,8.0557-4.1709,12.3626-.4013,1.0104-.9544,4.8662-1.8816,4.8093-2.6436-1.0898-1.2211-4.4459-1.3865-6.6201-.5481-3.024-.2024-5.9558.4486-8.9376.7091-5.8486.4989-12.4228,4.1974-17.4163Z"/>
      </g>
      <g>
        <path d="M42.2844,117.5357c.1436-.3359.2393-.7197.4316-1.0557l2.0166-3.9844c.2881-.6729,1.1514-1.9209,1.5361-2.4482.1914-.2881,2.4961-2.5928,2.5439-2.6406.7197-.4316,1.4883-.8643,2.2559-1.248,2.208-1.0078,2.3047-1.2959,3.6484,1.0078.9121,1.584-2.7842,4.417-3.5518,5.4248-1.4883,1.8721-3.1211,5.3281-3.1211,5.3281-.0957.0967-.1436.2402-.2393.3359-.6729,1.6807-1.6328,3.9844-2.0166,6.0967-.0479.3359-.1924.7207-.2402,1.0566-.0479.4795-.3838,2.832-.3838,3.4561-.1924,4.6084.2881,4.9443,1.3926,6.5283.9111,1.2959,3.5039,1.9199,3.792,1.9688.4316.1436.8164.1914,1.248,0,.1924-.0488.3838-.1445.5283-.2881,1.9678-1.6328,2.3516-3.0244,2.832-4.2246.2402-.7207,1.1035-2.832.96-4.5605,0-.1924.0479-.4316.0957-.624.0479-.3838.0967-.8164.1445-1.2002-.3838-.0957-.7686-.0957-1.1045.0957-.2402.0967-3.3125,1.2969-4.3682,1.3926-.1445,0-.2881-.0479-.4316-.0957-.0967-.0488-.1924-.0967-.3369-.1924.1924-.4805.4326-.9121.624-1.3926.1445-.2881.3848-.4795.5762-.6719.9609-.8643,2.1123-1.3438,3.3125-1.6797.3359-.0967.624-.1445.9121-.2402.1445-.0479.3359-.0957.4326-.2402.0479,0,.0957-.0479.1436-.0479,1.3438-.0479,1.6797-1.0078,3.5527.9121.0479.0479.0957.0957.1436.1445.5283.4316.5762.6719.2402,1.3438-.5762.1436-1.1523.2881-1.7764.4316-.0957.3359-.2402.6719-.0957,1.0088.0479.0957.0479.1914,0,.2881-.5762,3.6963-2.208,7.1045-2.4482,7.5361-.4326.7686-.96,1.4883-1.9688,2.7842-.2881.3838-2.0156,1.8721-2.0156,1.8721-.2881.3359-.7207.4805-1.0566.624-.3838.1445-.7676.1924-1.2002.2402-.8633,0-1.7275,0-2.5918-.0479-6.8164-.7197-7.4404-9.5527-6.1924-16.7539.3359-2.0635.96-4.2236,1.7764-6.2402ZM43.8206,139.3296c-.0488,0-.0488.0479,0,.0479v-.0479Z"/>
        <path d="M76.0774,124.2085c-.1445.1436-.2881.3359-.2402.5273-1.1035.7207-.9121,4.0811-3.3125,5.2812-.1436.0479-.1914.2393-.3838.0957-.1435.1924-2.7842.0957-3.4082-2.3525-.0479-.0957-.0479-.2393-.0479-.3359-.1445-.9121,0-1.8721.1914-2.832-.1914.1924-3.9355,3.6006-5.1836,2.9766-.9121-.3359-1.5361-1.1045-1.6807-2.1602,0-3.793,3.2168-5.377,5.4248-7.4893,0-.1914.1914-.2881.2402-.4316.5273-.0957.624.2881,1.0078.3359.3359.3359.8164.4805,1.1035.8643-.1914.5762-.96.624-1.1992,1.1514-.1445,0-.1924.0967-.3369.1445-.1914.1924-3.792,3.3125-3.9844,4.7041-.2871.5283-.4795,1.1523-.3359,1.7764,1.6807-.7676,3.5527-2.4004,4.8486-3.6484.1924-.1914.5762-.3359.7207-.5762.0479-.0957,0-.2393.0479-.3359.0479-.2402.2881-.4795.2393-.7676,0-.0967.0967-.0967.0967-.1924.2402-.9121.4316-1.9678.7197-2.832.2402-.7686.624-1.3926.5762-2.3047.3838.3848.8643.0967,1.2002.3359.1436.0488.0479-.0957.1436-.0479.2402.3848.5283.6719.8643.9121.4326,1.0566.5762,5.8564-.2402,10.6572,1.1523-1.5361,2.0645-3.3125,3.0244-5.04,0-.0967-.0479-.0488-.0479-.1445.3359-.3838.4805-.9121.7686-1.3438q-.0488-.0967-.0967-.1445c.1445-.1436.2402-.2881.3359-.4795,0,.3359,0,.624.0479.96-.0479.1436-.0479.3359-.0957.3838.1445,1.1523-.8643,1.5361-1.0078,2.3525Z"/>
        <path d="M76.7483,114.8951c-.0479-.6719.0967-1.3916.3838-2.208.2402.1445.5283.3359.7207.4805,0,.0479-.0479.0479-.0479.0957.0479-.0479.0479,0,.0479.0479.0479-.0479.0479-.0957.0957-.0957.1924.1436.3838.3359.4805.5283.0957,0,.0479-.0967.0479-.1445q.0479.0479.0957.0479c-.0479.0967-.0957.0479.0479.0967.0479.2881.3359.4795.5283.6719.1436.4316.1924.8164.1924,1.248.0957.5762.2881,1.2002.3359,1.8242,0,.2881.0479.624.0957.9121.0957.2881.2402.6719.1445.8643v3.4082c-.0967-.0479-.1445.0479-.2402.0957,0-.0479-.0479-.0479-.0479-.0957-.0488,0,0,.0957-.0488.1436.0488-.0957.0488,0,.0967-.0479.0479.0479-.1445.0957,0,.2402,0,0,.0479-.0479-.0479-.0967.0479-.0479.0957,0,.1436,0,.0479.0488-.0479.0488,0,.0967.0479,0,.0957,0,.0957.0479.4805-.7197.7686-1.5361,1.3926-2.1123.0479-.4316.8643-.5762.6719-1.1523,0-.0479-.0479.0479-.0479,0,.2402-.4316.8164-.0957,1.248-.1914.2881.2393.624.3359.8643.6719-.1445.4795.0957,1.4883-.1445,2.0645q.0488,0,.0488-.0488c.1436.3848-.0967.7207.0479.9121-.1445.8643.2881,2.4482.2881,2.4482.1436.0967.0479.1924.2393.3359h-.0479c.9121,1.1045,1.4883-.1914,2.5928-.7197.0479-.1436.1914-.2402.3359-.3359.0479-.1436.1436-.1436.1436-.3359.0967.0479.1445.1436.2402.2402-.0479.1436-.1924.1914-.1436.3838-.0488,0-.1445.0957-.1445,0-.0957,0,.0479.1436.0957.0957.0488,0-.0957.0479-.0479.0967-.0957-.0967-.0479.0479-.1914.0479.0479.0479.0957-.0479.1436,0-.0479,0-.1436.2402-.2402.1436-.0479,0,0,.0479-.0479.0479,0,.0488.0479.0488.0479.0488,0,.1436-.0957.0957-.1436.1914-.0957,0-.0479-.0957-.1445-.1436,0,.0479,0,.1436.0967.1914-.0967.4326-1.3447,1.2969-1.3447,1.3447l-1.2959.1436c-.8643-.0957-1.7764-.7197-2.1123-1.3438-.3359-.3359-.6719-.8164-.7676-1.2002-.5762-1.248-.1924-2.5439.1914-3.6963-.1436.0957-.2881.2881-.3359.4316-.0479,0-.0479-.0479-.0479-.0479-.1436.3838-.4795,1.1045-.6719,1.5361,0,.0479-.0479,0-.0957,0,.0957.1445-.0488.4326-.1445.4326.0957.2871-.1436.2871-.1924.4316-.1436.2402-.3359.7676-.3838,1.0557,0,.1445.0479.4326-.0957.4805,0,.0957,0,.1924.0479.2402-.0479-.0479-.0479.0957-.0957,0,0,.0957.0479.0479.1436.0957h-.0479c-.0479,0,.0957,2.9287.0957,2.9287-.0957,0-.0957.0957-.1436,0,0,0,.0479,1.2959.0957,1.4395-.0957-.0479-.1436.0967-.0479.1445,0,0-.0479.0479,0,.0479,0,.0479-.0479,0-.0479,0,0,.0479,0,.0957.0479.0957-.1924.1924-.2881,1.3447-.2881,1.3447l-.0479-.0488c-.0479.0488-.0479.1445-.1445.1445,0,.0479.0488,0,.0967.0479-.0479.0479-.1445,0-.1924.0479,0,.0479.0957,0,.1445.0479,0,0-.0488,0-.0488.0479-.0479,0-.0957-.0479-.0957-.0479-1.7764,1.9209-1.5361.96-2.7842.96,0-.0957-.0957-.1436-.1436-.1436.0479.0479.0479,0,.0957.0479,0,.0957-.0479,0-.1445,0v-.0957h-.0957s0-.1445.0479-.1924c-.0957,0-.0957.1445-.0957.1445-.4805-.0479-.9121-.6729-1.1523-1.1045.0479.0479.0479,0,.0967,0-.0488,0-.0967-.0479-.1445-.0957.0957-.1924.0957-.4805.0479-.6719.0479.0479.0967-.1445.0967-.2402h.0957c-.0957-.0479-.0479-.0957-.0479-.2881.0957,0,0,0,.0479.0957q0-.0479.0479-.0479c0-.0957-.0479-.0479-.1436-.0479.1436-.1924.0479-.3359.0957-.5762,0,.0957.1436-.0479,0-.0479.0479-.0479.0957.0479.1436,0l-.0957-.0479s.2402-2.1123.1924-2.6885l.4795-2.2559c-.0957,0-.0957-.1445-.0957-.0967,0,0,.2402-1.4883.1924-1.4883l.3838-3.8398c0,.0479-.0479.0479-.0479.0479-.0488-.4795.4316-3.9365.3838-4.5127h.0957ZM77.1321,131.5533q-.0479-.0488-.0957-.0967c0,.0479-.0479.0967-.0479.1445.0957.0479.0957-.0479.1436-.0479Z"/>
        <path d="M97.1008,138.4175c-.0957.5762,0,1.1523-.1436,1.7285-.0967-.0967-.1924.0957-.2402.0957,0,.0479-.0479-.0479,0-.0479-.0967-.0479-.0479.1436-.1445.1914-.5762.624-3.2158-.3838-3.4082-.1436-1.4395-.4316-1.5361-2.1123-1.3916-7.1523h.0957c-.1436-.5283.0479-1.2002,0-1.7764-.3359.1914-.8643.4316-1.4404.5283-.0479-.0967-.3359,0-.3838-.1445-.5762.0957-.96-.2402-1.3916-.4316-.9609-.8164-1.585-.7207-1.9209-3.1201l-.0479.0479v-.2881c0-.5283.0957-1.0088.1445-1.5361.0479-.1445.0957-.2881,0-.4326.2881-.5273.3838-1.248.624-1.7754.0479-.0488.0479,0,.0957,0l-.0479-.1924c2.4482-3.6484,3.0244-2.832,3.4561-3.2646,5.1367-.7197,1.1045-3.5996,3.6484-11.6162.2881-.8643,1.0078-2.0645.8164-3.3125,0-.0479-.1445-.0479-.1445-.1445,0-.0957.1445-.0957.0957-.2402.0967,0,.1924.0967.2402.1445.96.0957,1.5361.5762,1.7764,1.3916-.1436,1.2002-.3359,30.6748-.3359,30.6748.1924.0479-.1445.624.0479.8164ZM92.8284,122.7681c-1.0557-.624-1.9678.1436-2.4961.624,0,.2881-.2881.4805-.4316.6719.0957.2881-.3848.4805-.2881.8164-.1445.0479-.2402.2881-.1445.4316-.3838.4805-.3359,1.248-.6719,1.7764,0,.3359.0479.6719,0,1.0566-.0479.2393-.1924.4316-.1924.5752,0,.2402.1924.3848.1445.624.0479.0967.1436.0488.1436.1445.1445.7676.7686,1.248,1.4404,1.2002.2402-.0479.5762-.2402.8164-.3838.3838-.2402.6719-.5283.9121-.6729l.3838-5.2803c.0957-.0957.1436-.2402.1914-.3838-.0479-.0479-.0479.1436-.0957,0,.1445-.1924.1445-.7686.3359-.8643,0-.0957-.0479,0-.0957,0,.0479-.0957.0479-.1924.0479-.3359Z"/>
        <path d="M114.9563,120.272c-.0957.1924-.1436.4316-.2402.4795-.1436,1.3447-1.584,1.4883-2.0156,2.4482-.2402.0967-.4805.2881-.4805.5283-.1436.0479-.2402.0957-.3359.1924-.0479.2881-2.5439,3.7441-3.0244,3.7441-2.6396,1.2959-.3359,0-2.3037,1.584-.9121.3838-1.6328.96-2.5928.96-.624-.0479-1.1514-.1914-1.7754-.2402-1.4883-.9121-2.7363-2.0635-3.0723-3.8398-.0488-.2402-.0488-.4805-.0967-.7197v-.1445c-.3359-3.0244,1.4404-6.2402,1.8721-6.5283.0488-.0479,0,0,.0488-.0957.0479-.0967.1436-.1924.2871-.3359.1445-.1924.2881-.4326.4805-.5283.5283-.7686,1.6807-1.5361,2.6406-1.9688.0957-.0479.3359-.0479.4316,0,0,0,.1436.2402.1924.0967.1436.0957.2393.1914.3359.2393.0479.0967.1436.1924.3359.2402,0,.2402.2402.1924.3838.2402.1924.0479.5762.3838.7197.5762l-.0479.0479.0967.0479c.8154.8164-.9609,3.8408-1.0088,4.0322-.0479,0-.0479-.0479-.0957-.0479-.0957.4326-.7686,1.1045-.7686,1.1045,0,0-.8633.96-.8633,1.0078h-.0479c0,.0479-.0488.0479-.0488.0957-.0957.0967-.1914.2402-.2881.3359-.0479,0-.0479.0488-.0957.0488l-.0957.0957c-.1924.1436-.4805.3359-.4805.3838.0479.0479-.0479.0967-.0957.0479-.0957.1924-.3838.0967-.4805.3848,0-.0488-.0479,0-.0479-.0488-.0957.0967-.2402,2.0166-.1436,2.209-.0479.0479-.0479,0-.0479,0,.0957.3359-.2881.1914.6719,1.3438.4795.1436.9121.2881,1.3438.1924.4805-.0488,1.1045-.2881,1.584-.4805,1.0088-.5762,1.9209-1.5361,1.9209-1.5361,0,0,.0479,0,.0957-.0479s.1436-.0957.1914-.1445c.3369-.2393.9121-.7676,1.1523-.96.2881-.2393.5283-.4316.7686-.6719.5762-.5283,1.1514-1.0557,1.6797-1.6318.5762-.5762,1.1523-1.1045,1.7285-1.6807.0479-.0957-.0479-.0957,0-.1914.5283-.3359.9121-.96,1.3916-1.3447,0-.0957,0-.1436-.0479-.1914.1924-.1445.3838-.2881.5283-.4805-.0479.3838-.1445.7686-.2402,1.1523ZM104.012,120.3677c-.3848.2881-.4805.7686-.7686,1.2002v.1924c-.0479,0-.0957-.0479-.0957,0-.1924.2402-.0967.5273-.3359.7197v.0957c-.0488.2881-.2402.624-.2402.9121.1436-.2881.3838-.4795.4795-.8154.2402-.2402.4326-.5283.5762-.7686,0-.0479.0479-.0957.0967-.1436.1914-.1924.3838-.4805.5273-.7207.0479-.0957.0967-.1914.1924-.1914,0-.0967.0479-.0967.0479-.1445.2881-.2881.4316-.624.6719-.96.3848-.5283.7207-1.1035.7686-1.9199v-.0479c-.2402-.0479-.2402-.2881-.5762-.2402l-1.3438,2.6406c.0479.0957,0,.0957,0,.1914Z"/>
        <path d="M128.5881,121.4722c.1445.9121-.6719,1.248-.8154,1.9199-.0967.0957-.1924.2881-.1924.4316-.3359.1924-.3359.9121-.624,1.1523,0,.0479.0479.0479.0479.0967-.1924.0479-.5762,3.5039-3.792,2.6396-.4326-.2881-.7686-.7197-.96-1.1523-.3359-1.1514-.0488-3.9355.1436-5.1836.0479-.5283.1924-1.1045.1445-1.5371-.0967-.4316-.3369-.9111-.624-1.2959-1.0088.1445-2.0645,2.1123-2.1611,2.4482-.6719.5762-.96,1.4883-1.6318,2.0166.0479.1436-.0479.1436-.0957.2402.0479.0479.0479.2393,0,.2881q.0479,0,.0957.0957c-.0479.0957-.0957.2402,0,.3359-.3359,1.9678-.4795,8.209-.8154,8.6406.0479.0957,0,0-.0488,0,0,.3359-.6719.3359-.5762.5762-.1436-.1445-.2871-.1445-.4795-.0957-.0479,0,0,.0957,0,.1436-.2881,0-.3838-.0479-.8164-.0479,0,.0479.0479.0479.0479.0479.0488.0957-.1914,0-.1914-.0957-.1924-.0479-.3359,0-.3838-.1445-.0967.0967-.2402-.0957-.3369-.1436,0-.0479.0488-.0957.0488-.1445-.2402-.7197-.5762-3.792-.6729-3.8398,0-.3838.0488-.6719,0-1.1523v-.1436c.0488,0,.0488-.0479.0488-.0479l-.0488-.0488c.0488,0,.0488-.0479.0488-.0957,0,.0479.0479.0479.0957.0479,0-.2402.0479-.6719-.0479-.96q.0479-.0479,0-.0479v-.1445c.0479-.0479.0957-.1436,0-.2393,0-.6729-.0479-1.3926-.1924-2.1123.4326-.8164.0479-2.9287.3359-5.1367.0479-.6719.5283-3.0723.5762-3.2646.0479-.3838.0479-.7676.2881-1.0557.0957-.7197.624-1.0557.7686-1.7764.2871.4805.96.4805,1.1992.96.0967.0479.0967.1445.1924.1924.0479.1924.0479.3359.1924.3838-.0967.1924.0957.3838.1436.5283l.3838,6.6729c.9121-1.248,1.6328-2.6406,3.2646-3.1689.2881-.2393.7686-.2393,1.2002-.1914,1.0078.1914,1.584.96,1.9199,1.8721-.0957.0957.0967.2881-.0479.3359.7197,1.2959-.3359,5.9043-.3359,6.0967-.0479.3359.1436.5762.3359.8154.4805-.0479.8164-.4795,1.0557-.7676,1.0088-1.3438,1.7764-2.832,2.5928-4.3203,0-.0479-.0479-.0479-.0479-.0957.2881-.2881.3838-.7686.624-1.1045,0-.0479-.0479-.0957-.0479-.1445.0957-.0957.1436-.2393.2393-.3359,0,.2402.0488.4805.0488.7207-.0488.1436,0,.2881-.0967.3359Z"/>
      </g>
      <path class="cls-1" d="M66.5938,66.5475c.1252-.4007-.2194-.6249-.097-.9759.2067-.039.3651-.1316.5152-.0721.2662-.1891.701.2447,1.0032.3129q-.0536.0478-.1048.0448.0483.0536.096.1082c.0542-.0487.0571-.0994.1049-.0458-.003.0517.2038.0117.1921.2155.1555-.0419.1921.2155.3953.2271.1862.3169.5279.5928.7648.9126.1355.314.3783.5323.5674.7985l-.0117.2038c.099.0566.0873.2603.1828.3685.9706.0039,1.9436-.0419,2.9619.0166,1.6769.1472,3.175.7439,4.3502,1.6291.039.2067.2369.3198.3866.3792.0843.312.5791.5957.663.9067q.0029-.0507.0541-.0478c.0931.1579.135.3139.1891.2662.3212.6318.5796,1.4634.5811,2.3321-.0541.0478-.1136.1979-.0658.2515-.2179.2428-.2442.701-.4655.9945q-.0483-.0536-.0454-.1043c-.0536.0478-.0029.0507-.0087.1521-.1019-.0059-.1107.1472-.2062.04q.0478.0536.0449.1043c-.1019-.0059-.0536.0478-.1019-.0059-.0029.0507-.1107.1472-.2096.0907-.0175.3052-1.4024,1.2977-1.3966,1.1963-.0507-.0029-.0565.0985-.0595.1502-.3115.0838-.4309.3831-.7931.465-.0234.4075-1.5974,1.1339-1.6905.975-.0088.1531-.1107.1472-.1673.2467-.8321.2584-1.6281.7741-2.3135,1.1436-.0507-.0029,0,0-.0478-.0536-.2691.2398-.5806.3237-1.0418.349l.0059-.1024s-.0595.1502-.0536.0478c-.0542.0487-.1078.0965-.1614.1443-.1019-.0059-.1589.0926-.3627.0809-.0566.0995-.0176.3061-.0741.4046-.1048.0448-.1019-.0059-.1048.0448-.0537.0488.0512.0029.0512.0029.2281.4728-.4002,5.1877-.3101,5.3974-.0482-.0546-.0541.0478-.0541.0478q.0483.0536-.0117.2038c.0483.0536.135.3139-.0234.4066l-.5406,12.0748c-.1916-.2154-1.6979,6.4406-2.8825,3.0526-.0566.0995-.1048.0448-.099-.0566-.0595.1502-.1526-.0088-.2545-.0146.0454.1043-.0565.0985-.0058.1014-1.0413.3491-.525-.6425-.7166-.8579.0146-.2545.3768-.3364.0829-.5577.0541-.0478-.4095-1.7598.0224-1.2752l.0029-.0507c-.2691.2398.3432-13.976.5889-13.8093.0029-.0507-.0449-.1043-.0961-.1072.1584-.0926.0117-.2038.1194-.2993-.0477-.0546-.1526-.0088.003-.0517-.2881-.3227.6732-17.9411.6965-18.3477.003-.0517-.0512-.0029-.0482-.0546ZM65.342,99.0135c-.1589.0926-.3115.0838-.057.0985-.099-.0566.0512.0029.057-.0985ZM65.3844,97.3814c-.1019-.0059-.0536.0478-.0565.0985.0029-.0507.0536-.0478.0565-.0985ZM68.163,97.0304q-.0541.0478-.057.0985c.0483.0536.156-.0419.1077-.0955q-.0536.0478-.0507-.0029ZM75.169,76.4394c.3681-.1833.6459-.5762.9662-.8131.3973-.6922,1.0373-1.1661,1.033-1.9841-.0127-.6649-.3817-1.3493-.7629-1.831-.4289-.5362-1.0105-1.0802-1.6608-1.322-.4012-.1248-.9613-.157-1.2582-.3276-.1048.0448-3.0067-.1219-3.1111-.076.078.4124.2048.8794.139,1.1309-.0059.1024.0785.4134.0668.6171-.5606,6.1997-1.5214,8.6985,4.2679,4.8426.1048-.0448.1614-.1443.3203-.2369ZM69.5436,86.3313c.0512.0029.0541-.0478.1019.0059.0029-.0507.0541-.0478.0029-.0507-.0566.0995-.099-.0566-.1526-.0088l.0478.0536ZM68.8241,98.8555l.1019.0059c.0175-.3052-.0931-.1579-.1019-.0059Z"/>
      <path class="cls-1" d="M90.2555,86.8061c-.1614.1443-.3261.3393-.2867.546-1.2148.6961-1.2162,4.2713-3.8345,5.3983-.156.0419-.2184.2428-.4134.078-.1643.195-2.9585-.0673-3.4714-2.7016-.0448-.1053-.0361-.2574-.0302-.3597-.0975-.9759.114-1.985.3758-2.9922-.215.1921-4.3941,3.5791-5.6796,2.841-.9467-.4124-1.5619-1.2645-1.6501-2.3935.231-4.0217,3.7385-5.5066,6.209-7.6115.0117-.2038.2214-.2944.2808-.4436.566-.0702.6445.3432,1.0491.4173.3358.3773.836.5596,1.1183.9837-.2389.5996-1.0564.6035-1.343,1.1485-.1531-.0088-.2096.0907-.3651.1326-.2155.1921-4.224,3.2817-4.5126,4.747-.3373.5421-.5791,1.1924-.4646,1.8631,1.829-.7127,3.914-2.3292,5.3642-3.5742.2155-.1921.6317-.3207.799-.5674.0565-.0985.0146-.2545.0711-.3529.0658-.2515.3349-.4914.3018-.8004.0058-.1014.1072-.0956.113-.197.3106-.9535.5781-2.0611.9364-2.96.3013-.8004.7468-1.439.7512-2.4091.3841.4309.9106.155,1.2523.43.1502.0595.0571-.0994.156-.0429.2311.4221.5187.7448.8604,1.0208.3939,1.1456.2545,6.2456-.9037,11.2871,1.3157-1.5589,2.3911-3.387,3.5147-5.1614.0058-.1014-.0483-.0536-.0424-.155.3798-.3871.565-.9389.8965-1.3796q-.0449-.1043-.0927-.1579c.1614-.1443.2721-.2915.3856-.4885-.0204.3559-.038.661-.0078,1.0208-.0595.1502-.0711.3529-.1253.4017.0824,1.2304-1.0101,1.5765-1.2123,2.4325Z"/>
      <path class="cls-1" d="M106.1244,90.6806s-3.0082,5.2414-3.8101,5.8595c-.4104.0273-.5806.3247-.934.2525-.0507-.0029-.0537.0488-.0566.0995-.7156.0098-2.4876.623-3.5986-1.3815-.0448-.1053-.1438-.1618-.2428-.2184-1.1183-5.4276-.2652-3.386.0126-8.2228.2457.1667.3622-.0819.3232-.2886-.156.0429-.1589.0936-.2214.2944-.0512-.0029-.0483-.0536-.0453-.1053-.0537.0488-2.1317,2.4315-2.1317,2.4315-.3563-.0205-.5801.3247-.9336.2535-.057.0985-.2579.0361-.3656.1316-1.0603-.2135-2.0099-.5752-2.6309-1.3259-.1828-.3675-.3661-.7361-.4928-1.2031-.2584-.8316.0419-2.5007.3578-3.5547.0059-.1024.1165-.2486.1253-.4017.0565-.0985.0146-.2545.0175-.3052.0566-.0995.1048-.0448.1048-.0448-.0424-.156.1424-.7078.157-.9623.2027-.856.369-1.9704.4275-2.9892.0702-1.2216.1881-2.3896.2018-3.5128.0058-.1014-.1502-.0595-.0902-.2086.1019.0059.0961.1072.2486.116.1019.0059.1077-.0955.2096-.0897.1975.1131.506.0799.7576.1453.2369.3198.6416.3939.8784.7146.0931.1579.0814.3617.1175.6191.0814.3627.3241.5811.3007.9886-.0029.0507-.3846,3.1443-.3963,3.348.3125.7839-.7829,1.1807-.5055,2.5758-.4963.6357-.3062,1.7705-.6104,2.6217-.0058.1014.042.155.0361.2574-.0887.6591-.1326,1.4225.2423,2.0055.934-.2525,1.1933-1.208,1.8392-1.7842.8935-1.3279,2.2219-2.2219,3.0194-3.6571.137-.6054.2623-1.0071.3598-1.8183.0961.1072.0512.0029.1019.0059-.1438-.1618.449-2.4774.5085-2.6275.0628-.1999-.0873-.2603.1165-.2486-.0507-.0029-.1019-.0059-.0961-.1072.0512.0029.0483.0536.099.0566.0049-.9701.8267-1.9441.4899-3.19,1.4429-.2233,2.6748.5625,3.2271,1.6155.4538.9974.1404,2.0006.1925,2.8722-.1077.0955-.0536.0478-.1643.195l.0507.0029c.0424.155.1448,2.8176.136,2.9697l-.1526-.0088c.0565-.0985.1555-.0419.0594-.1492-.0507-.0029-.0087.1521-.1106.1462.1472.1112-.0117.2038.0873.2603.0029-.0507.0541-.0478.0629-.2008-.003.0517-.1595,1.8816-.1141,1.986-.0029.0507-.0512-.0029-.1019-.0059-.057.0985.1019.0059.0931.1589-.1501-.0605-.0087.1521-.1648.195.1979.1131.1472.1102.2433.2174-.1648.195.1682.623-.038.662.0448.1053.0687,2.3535-.0683,2.959-.2471.7517.0536,1.7393-.2754,2.1293.0395.2067-.0234.4075.0132.6649-.1531-.0088-.0263.4582-.1545.9106-.0058.1014-.1136.1979-.1194.2993-.0059.1024.039.2067.0361.2574-.003.0517-.1643.195-.0146.2545-.1673.2467-.2272.3958-.2448.702,1.5819-1.7481,2.7796-3.9271,4.1216-5.9443.0058-.1014-.0454-.1043-.0395-.2067.3798-.3871.5679-.9886.9506-1.4263-.0453-.1053-.0931-.1589-.0931-.1589.1107-.1472.2749-.3412.3856-.4885-.0175.3052-.038.662-.0078,1.0208-.0624.2009-.0741.4046-.1277.4524.133,1.2343-1.0642,1.6252-1.2694,2.5319-.1614.1443-.3291.39-.2896.5967ZM102.8968,89.0651s.099.0566.1077-.0955c-.1048.0448-.0536.0478-.1526-.0088-.0029.0507-.0058.1014.0449.1043Z"/>
      <path class="cls-1" d="M112.8369,76.1002s.0961.1072-.0029.0507c-.0887.6591-.1779,1.3181-.2131,1.9294-.0146.2545-.0799.506-.0916.7098-.0292.5089.0853,1.1797-.0429,1.6321.0883,1.128-.1735,2.1352-.3281,3.0458-.098.8111.0054,1.6857-.1014,2.6499.0512.0029.0541-.0478.0541-.0478-.0029.0507.039.2067-.0629.2008.1165,4.1952-.2364,13.0118-.2364,13.0118,0,0,.0478.0536.0449.1043-.0848,1.4761-.001,3.5752.3212,5.0756-.0507-.0029-.0536.0478-.0536.0478-.0029.0507,0,0,.0478.0536-.0536.0478.096.1082-.0566.0995.0961.1072.0844.311.1292.4153-.1019-.0059-.1048.0448-.1555.0419.1526.0088-.0595.1502-.1049.0458-.1019-.0059,0,0-.0058.1014-.0507-.0029-1.0095-.2116-1.8134-1.3298-.0541.0478-.0146.2545.0273.4104-.1467-.1111-.0902-.2096-.2398-.2691-.0058.1014.0931.1579.0844.311l-.1019-.0059c.1891.2662.5377,1.3074-.1516.8599-.3135-1.6525-2.1848.6913-2.8434-1.1855-.0536.0478-.1048.0448-.1555.0419.0058-.1014-.039-.2057-.1409-.2116.003-.0517.0566-.0995.1078-.0965-.0512-.0029-.2491-.116-.0454-.1043-.5279-.5928.6639-16.001.4719-16.2164q.0512.0029.0483.0536c-.0366-.2574.0409-.7127-.0015-.8677.003-.0517.1049-.0458.1078-.0965s-.0536.0478-.0536.0478c-.1019-.0059.0565-.0985-.0454-.1043l.0512.0029c.0029-.0507.0059-.1024-.0453-.1053q.0029-.0507.0541-.0478c.0029-.0507-.0483-.0536-.0961-.1072.0029-.0507.1019.0059.1048-.0448.0059-.1024-.0541.0478-.0482-.0546.0058-.1014.0599-.1492-.042-.155-.0512-.0029.0566-.0995.0536-.0478-.1599-.7761.4275-4.7773.1399-5.1.2984-.7497.351-1.6662.4514-2.5281l.0512.0029,1.536-8.953c.0682-.3022.0887-.6591.1092-1.0149.1078-.0965.0629-.2008-.0302-.3597.1048-.0448.2486.117.2964.1706.1048-.0448-.0419-.156-.0361-.2574.1497.0595.1891.2662.3476.1726,1.3162,1.0978,1.38,1.7656,1.9709,4.8124.1813,1.2879.8112,1.8856.7351,3.2096ZM112.2564,104.875c-1.4293,3.545,2.8639-9.8461,3.5259-14.2529.0204-.3559.9428-.4056.9223-.0487-.7985,5.0113-2.2502,9.8315-4.4482,14.3016Z"/>
      <path class="cls-1" d="M130.5294,89.1198c-.1609.1443-.3257.3393-.2867.546-1.2148.6961-1.2157,4.2713-3.8345,5.3983-.155.042-.2184.2428-.4124.078-.1648.195-2.959-.0673-3.4719-2.7016-.0448-.1053-.0361-.2574-.0302-.3597-.0975-.9759.114-1.985.3763-2.9921-.2155.1921-4.3941,3.5791-5.6801,2.841-.9467-.4124-1.5619-1.2645-1.6506-2.3935.231-4.0217,3.739-5.5065,6.2095-7.6115.0117-.2038.2214-.2944.2808-.4436.5665-.0702.6445.3432,1.0491.4173.3354.3773.8355.5596,1.1183.9837-.2389.5996-1.0569.6035-1.3435,1.1485-.1521-.0087-.2096.0907-.3647.1326-.2155.1921-4.2235,3.2817-4.5121,4.7471-.3383.542-.5801,1.1923-.465,1.8631,1.829-.7127,3.9135-2.3292,5.3642-3.5742.2155-.1921.6317-.3207.7985-.5674.0575-.0984.0146-.2545.0721-.3529.0653-.2516.3344-.4914.3013-.8004.0058-.1014.1072-.0956.113-.197.3101-.9535.5781-2.0611.9369-2.9599.3013-.8004.7459-1.4391.7507-2.4091.3841.4309.9106.155,1.2528.43.1492.0594.0566-.0995.1551-.0429.2311.4221.5197.7449.8608,1.0208.3939,1.1456.2545,6.2456-.9037,11.2871,1.3152-1.559,2.3916-3.387,3.5147-5.1614.0058-.1014-.0478-.0536-.042-.155.3793-.3871.5645-.9389.896-1.3796q-.0449-.1043-.0927-.1579c.1609-.1443.2721-.2915.3851-.4885-.0204.3559-.038.661-.0068,1.0208-.0605.1501-.0721.3529-.1258.4017.0829,1.2304-1.0101,1.5765-1.2128,2.4325Z"/>
      <path class="cls-1" d="M137.2004,93.8656l4.6759-4.9421c-.1287-.4163-.5246-.6425-.8697-.8667-.5635-.8501-2.6275-1.3766-2.803-2.7659-.0448-.1053-.156.0419-.1472-.1112l.1024.0059c-.3315-1.3474,1.0988-2.2356,1.555-3.077.5246-.2261.7059-.7263,1.3259-.8433.1589-.0936.1707-.2973.3764-.3364.1024.0059.0936.1589.2437.2184.155-.042.3081-.0332.314-.1355.3383.3266,1.0568.2652,1.283.7888-.0088.1531-.1112.1472-.0722.3539-.8462.5129-1.3571,1.403-2.3535,1.8564-.3413.5937-.8258,1.0256-.9594,1.5794.1335,1.2343,2.1039,1.6028,2.8185,2.5125.6484-.6269,3.4201-3.5323,3.9223-4.2704.2584-.036.273-.2905.4787-.3295.392-.5908.9779-1.0169,1.4118-1.4517-.0205.3568-.0409.7127-.1092,1.0159-3.1959,4.0558-1.8787,1.5775-5.1194,5.528.3422.2759.6776.6522.9174.9213-.0653.2516.1833.3685.2769.5265.1891.2671.1657.6737.2973,1.0393-.0536.0478-.0594.1492-.1131.1979.2643,2.5173-5.7902,7.4311-7.6378,3.1364.1589-.0926.2213-.2935.1852-.5508ZM142.1416,89.6537c-.3237.2885-.4456.6386-.9691.8638-.0536.0478.0448.1053-.0117.2038l-2.8069,3.5167c.0507.0029.0478.0536.0449.1043-.1053.0458-.1677.2457-.1765.3987.2398.2691.4641-.0751.623-.1686.1072-.0956.2096-.0897.3139-.1346.584-.3753,1.1729-.8521,1.7169-1.4342.816-.8726,1.3327-1.8641,1.3132-3.2953.003-.0517-.0477-.0546-.0477-.0546Z"/>
      <path class="cls-1" d="M134.0748,79.1878c-.1433.0662-.3569.1866-.4161.265-.1003.0223-.1895.0689-.2705.0986-.057-.0217-.0923.0052-.1462.0249-.1193.0151-.2333-.0284-.3283-.0646q-.0381-.0145-.049-.0388c-.0542.0198-.1193.0151-.1953-.0139-.0028-.0415.0374-.1269-.0388-.156.0161-.0343,1.5088-4.2064,1.5548-4.2092q-.0271.01-.0081.0172c.1889-.2106.8681-3.9701,1.2471-4.6327q.0108.0244.0189.0072c-.0007-.1415.2933-.4328.2824-.4571-.0189-.0072-.035.0269-.0461.0025.0191.0073.0272-.0098.0272-.0098l-.0381-.0145c.0271-.01.0081-.0172.0351-.0271-.0189-.0072-.0379-.0144-.0137-.0658.0459-.0026.0137.0658.057.0217.1075-.1809.2457-.1887.3948-.1723,1.3435.956,2.0759.0485,2.2155.3236-.3058.1256.0899.0948.239.1114l-4.0192,8.6361c-.1594.1008-.3269.2183-.5024.3534Z"/>
    </g>
  </g>
</svg>