<svg width="32" height="32" viewBox="0 0 32 32" fill="none" xmlns="http://www.w3.org/2000/svg">
<g clip-path="url(#clip0_4_35)">
<rect width="32" height="32" rx="16" fill="white"/>
<path d="M10.1981 18.2396C10.3323 17.2205 10.7404 16.0235 11.8484 15.7497C13.4396 16.4568 14.4683 20.5357 15.0779 22.1459C15.5556 20.7215 15.8276 19.5416 15.0447 18.2108C14.759 17.4478 13.9902 16.8787 13.914 15.9966C13.8032 15.5672 13.5751 15.1669 13.7041 14.7357C13.2194 14.1252 13.5719 13.279 13.3622 12.57C13.1664 11.9529 13.2692 11.3206 13.124 10.6997C13.1819 9.97628 13.4136 9.10766 13.8211 8.521C14.272 8.58036 14.7585 8.78592 14.9383 9.23462C15.1991 9.67153 15.7314 9.96244 15.7327 10.5377C16.8579 12.0285 16.7054 14.0798 17.1381 15.8392C18.0217 15.0833 18.2988 13.8311 18.8147 12.8283C19.1424 12.0904 19.736 11.538 20.1839 10.8804C20.4742 10.4973 20.8496 9.79264 21.3873 10.183C21.5199 10.2702 21.785 10.2776 21.8304 10.4381C21.8847 11.3837 21.6632 12.2621 21.4432 13.1639C21.2122 14.6191 20.2116 15.6699 19.6526 16.947C19.1618 17.521 19.0185 17.4443 18.7609 18.25C18.1055 19.2205 17.3359 20.0911 16.3894 20.7659C16.1571 21.6805 15.437 22.6887 15.9992 23.5774C16.4811 23.1996 16.5642 22.4579 17.1052 22.1233C17.5123 21.1479 18.1019 20.1493 18.7517 19.2654C19.7667 18.2032 21.8502 16.5079 21.7973 19.1873C21.794 19.2669 21.7939 19.352 21.744 19.417C21.5733 19.6868 21.7048 20.0353 21.6161 20.335C21.2183 20.9393 21.1317 21.6789 20.8494 22.3189C20.0744 23.2681 19.5839 24.4591 18.8036 25.3667C18.2886 25.7186 17.8351 26.1362 17.4605 26.6369C16.8901 27.3164 16.1292 27.8363 15.6245 28.563C15.325 28.8583 14.8899 28.9989 14.6963 29.4178C14.5615 29.7532 14.28 29.8768 13.9534 29.9291C13.1449 29.528 13.1743 28.3993 12.9717 27.6403C12.7834 27.2844 12.8016 26.8605 12.6243 26.5277C12.5125 26.4116 12.4529 26.2707 12.4019 26.1227C12.2209 25.4511 11.8839 24.8399 11.6334 24.2031C11.5361 23.4538 11.2662 22.7338 11.0309 22.0368C10.4807 21.5365 10.2454 20.5849 10.3952 19.8589C10.3611 19.4674 10.1041 19.0979 10.1733 18.6725L10.1981 18.2396Z" fill="black"/>
<path d="M19.5535 2.08914C19.9123 2.08571 19.926 2.47086 20.0736 2.72888C20.2298 3.11845 20.3001 3.53448 19.757 3.5239C20.4947 3.77737 20.3403 3.8098 20.4335 4.53933C20.7479 6.05119 20.4498 7.55996 19.7537 8.92174C19.3795 9.86212 19.4665 11.0189 18.6743 11.7722C18.3202 12.0709 17.9934 12.6365 17.4775 12.3425C16.9424 12.0272 17.0092 11.0463 17.2684 10.5542C17.5212 10.2085 17.1993 9.8307 17.2745 9.45495C17.1688 8.27114 17.3754 7.11688 17.5758 5.94853C17.6418 4.64989 17.5618 2.28148 19.2373 2.07104L19.5535 2.08914Z" fill="black"/>
<path d="M14.0979 21.806C14.0392 22.2281 14.2758 22.6063 14.3054 23.0198C14.1695 23.7679 14.3833 24.4946 14.3302 25.2372C14.1362 26.057 14.0206 28.2966 13.2354 26.3361C12.7784 25.591 12.7517 24.6445 12.3324 23.8891C12.3648 23.6354 12.2708 23.4227 12.1056 23.2428C11.8655 22.8819 11.9233 22.3948 11.6875 22.0159C11.2009 21.1244 10.2474 16.8527 11.9997 17.2368C12.5648 18.093 13.1842 19.099 13.4244 20.0641C13.5374 20.0564 13.59 20.0238 13.6105 20.1406C13.6839 20.7331 14.1813 21.1989 14.0979 21.806Z" fill="white"/>
<path d="M15.6009 27.4637C15.2605 26.9121 15.9575 26.4623 15.7856 25.9135C15.7769 25.7882 15.9207 25.8163 16.0024 25.8241C16.2146 25.6619 16.119 25.1803 16.447 25.0427C16.7601 23.9975 17.4183 23.0964 17.9254 22.1379C18.2022 21.7309 18.5149 21.3059 18.6106 20.8309C19.1679 20.2931 19.5587 19.6142 20.1831 19.127C20.3576 18.9271 20.7951 18.8923 20.8786 19.1609C20.8196 19.9494 20.8882 20.8271 20.3788 21.4891C19.9119 22.0472 20.0985 22.9601 19.3778 23.2934C19.299 23.9881 18.6933 24.4761 18.2715 24.9721C17.9506 25.0637 17.7915 25.318 17.7455 25.6329C17.7021 25.8507 17.3743 25.8687 17.2165 25.9984C16.6885 26.5085 16.0315 26.8408 15.6009 27.4637Z" fill="#75A394"/>
<path d="M16.2448 14.2194C16.1479 14.1739 16.0509 14.1284 15.9544 14.0831C16.0061 14.3653 16.2108 14.6529 16.1068 14.9636C16.0012 15.3332 16.1833 15.6898 16.1462 16.06C16.1284 16.8748 16.159 18.878 15.3042 17.0322C14.795 16.0686 14.2058 15.1205 14.2922 13.9699C14.0844 12.8208 13.855 11.4186 14.208 10.3373C14.64 10.2868 14.7917 10.7157 15.0487 10.9853C15.1438 11.1771 15.5864 11.4757 15.5025 11.6569C15.3138 12.0917 15.9202 12.538 15.9354 13.0125C16.0246 13.4267 16.0466 13.8742 16.2448 14.2194Z" fill="#75A394"/>
<path d="M17.6048 18.0148C17.8173 16.8036 18.2903 15.5338 18.9715 14.537C19.0326 14.3678 18.9576 14.1381 19.0953 13.9707C19.5564 13.2387 19.9671 12.467 20.5377 11.8116C20.6391 11.6917 20.7682 11.6558 20.9205 11.7036C21.0201 11.8064 20.8457 12.0417 20.8411 12.1853C20.7683 12.3535 20.7803 12.5155 20.8412 12.6852C20.8605 12.9032 20.6823 13.1026 20.623 13.3102C20.4786 13.7203 20.5934 14.1849 20.282 14.5408C20.138 14.8463 19.7779 15.1845 19.8016 15.5095C19.8662 15.6272 19.8567 15.6044 19.762 15.6665C19.1368 16.0662 18.8556 16.8576 18.3164 17.3838C18.1087 17.5883 18.116 17.9235 17.8953 18.1084C17.7303 18.2796 17.5361 18.33 17.6048 18.0148Z" fill="white"/>
<path d="M19.0816 3.20044C19.8179 3.78875 19.6664 5.70907 19.6867 6.62408C19.5746 7.57782 18.9702 8.3694 18.783 9.30252C18.6961 9.52143 18.5763 10.3568 18.3754 10.3445C17.8026 10.1084 18.1108 9.38125 18.075 8.9102C17.9562 8.25503 18.0311 7.61983 18.1722 6.9738C18.3258 5.70666 18.2803 4.28232 19.0816 3.20044Z" fill="#75A394"/>
</g>
<defs>
<clipPath id="clip0_4_35">
<rect width="32" height="32" rx="16" fill="white"/>
</clipPath>
</defs>
</svg>
